<svg width="20" height="20" viewBox="0 0 20 20" fill="none" xmlns="http://www.w3.org/2000/svg">
<g id="hugeicons:bookmark-02">
<path id="Vector" d="M3.33398 14.9837V8.09116C3.33398 5.06283 3.33398 3.54949 4.31065 2.60783C5.28732 1.66616 6.85815 1.66699 10.0007 1.66699C13.1432 1.66699 14.7148 1.66699 15.6907 2.60783C16.6673 3.54783 16.6673 5.06199 16.6673 8.09033V14.9845C16.6673 16.9062 16.6673 17.867 16.0232 18.2103C14.7757 18.877 12.4365 16.6545 11.3257 15.9853C10.6815 15.5978 10.359 15.4037 10.0007 15.4037C9.64232 15.4037 9.31982 15.5978 8.67565 15.9853C7.56482 16.6545 5.22565 18.877 3.97815 18.2103C3.33398 17.867 3.33398 16.9062 3.33398 14.9845" stroke="#F8F8F8" stroke-width="1.5" stroke-linecap="round" stroke-linejoin="round"/>
</g>
</svg>
