<svg width="21" height="20" viewBox="0 0 21 20" fill="none" xmlns="http://www.w3.org/2000/svg">
<g id="mdi:like">
<path id="Vector" d="M19.6673 8.33325C19.6673 7.89122 19.4917 7.4673 19.1792 7.15474C18.8666 6.84218 18.4427 6.66658 18.0006 6.66658H12.734L13.534 2.85825C13.5507 2.77492 13.559 2.68325 13.559 2.59159C13.559 2.24992 13.4173 1.93325 13.1923 1.70825L12.309 0.833252L6.82565 6.31659C6.51732 6.62492 6.33398 7.04158 6.33398 7.49992V15.8333C6.33398 16.2753 6.50958 16.6992 6.82214 17.0118C7.1347 17.3243 7.55862 17.4999 8.00065 17.4999H15.5006C16.1923 17.4999 16.784 17.0833 17.034 16.4833L19.5506 10.6083C19.6257 10.4166 19.6673 10.2166 19.6673 9.99992V8.33325ZM1.33398 17.4999H4.66732V7.49992H1.33398V17.4999Z" fill="#F8F8F8"/>
</g>
</svg>
