<svg width="20" height="20" viewBox="0 0 20 20" fill="none" xmlns="http://www.w3.org/2000/svg">
<g id="material-symbols:share">
<path id="Vector" d="M15 18.3334C14.3056 18.3334 13.7153 18.0904 13.2292 17.6042C12.7431 17.1181 12.5 16.5279 12.5 15.8334C12.5 15.7362 12.5069 15.6354 12.5208 15.5309C12.5347 15.4265 12.5556 15.3329 12.5833 15.2501L6.70833 11.8334C6.47222 12.0417 6.20833 12.2051 5.91667 12.3234C5.625 12.4417 5.31944 12.5006 5 12.5001C4.30556 12.5001 3.71528 12.257 3.22917 11.7709C2.74306 11.2848 2.5 10.6945 2.5 10.0001C2.5 9.30564 2.74306 8.71536 3.22917 8.22925C3.71528 7.74314 4.30556 7.50008 5 7.50008C5.31944 7.50008 5.625 7.55925 5.91667 7.67758C6.20833 7.79591 6.47222 7.95897 6.70833 8.16675L12.5833 4.75008C12.5556 4.66675 12.5347 4.57314 12.5208 4.46925C12.5069 4.36536 12.5 4.26453 12.5 4.16675C12.5 3.4723 12.7431 2.88203 13.2292 2.39591C13.7153 1.9098 14.3056 1.66675 15 1.66675C15.6944 1.66675 16.2847 1.9098 16.7708 2.39591C17.2569 2.88203 17.5 3.4723 17.5 4.16675C17.5 4.86119 17.2569 5.45147 16.7708 5.93758C16.2847 6.42369 15.6944 6.66675 15 6.66675C14.6806 6.66675 14.375 6.60786 14.0833 6.49008C13.7917 6.3723 13.5278 6.20897 13.2917 6.00008L7.41667 9.41675C7.44444 9.50008 7.46528 9.59397 7.47917 9.69841C7.49306 9.80286 7.5 9.90341 7.5 10.0001C7.5 10.0967 7.49306 10.1976 7.47917 10.3026C7.46528 10.4076 7.44444 10.5012 7.41667 10.5834L13.2917 14.0001C13.5278 13.7917 13.7917 13.6287 14.0833 13.5109C14.375 13.3931 14.6806 13.334 15 13.3334C15.6944 13.3334 16.2847 13.5765 16.7708 14.0626C17.2569 14.5487 17.5 15.139 17.5 15.8334C17.5 16.5279 17.2569 17.1181 16.7708 17.6042C16.2847 18.0904 15.6944 18.3334 15 18.3334Z" fill="#F8F8F8"/>
</g>
</svg>
