<svg width="36" height="35" viewBox="0 0 36 35" fill="none" xmlns="http://www.w3.org/2000/svg">
<g id="flat-color-icons:google">
<path id="Vector" d="M32.299 14.6439H31.1243V14.5834H17.9993V20.4167H26.2411C25.0387 23.8125 21.8078 26.2501 17.9993 26.2501C13.1672 26.2501 9.24935 22.3323 9.24935 17.5001C9.24935 12.6679 13.1672 8.75008 17.9993 8.75008C20.2299 8.75008 22.2591 9.59154 23.8042 10.966L27.9291 6.84112C25.3246 4.41373 21.8406 2.91675 17.9993 2.91675C9.9457 2.91675 3.41602 9.44643 3.41602 17.5001C3.41602 25.5537 9.9457 32.0834 17.9993 32.0834C26.053 32.0834 32.5827 25.5537 32.5827 17.5001C32.5827 16.5223 32.4821 15.5678 32.299 14.6439Z" fill="#FFC107"/>
<path id="Vector_2" d="M5.09766 10.7123L9.88901 14.2261C11.1855 11.0163 14.3253 8.75008 17.9995 8.75008C20.2301 8.75008 22.2593 9.59154 23.8044 10.966L27.9293 6.84112C25.3247 4.41373 21.8408 2.91675 17.9995 2.91675C12.3981 2.91675 7.54036 6.07914 5.09766 10.7123Z" fill="#FF3D00"/>
<path id="Vector_3" d="M18.0004 32.0833C21.7673 32.0833 25.19 30.6418 27.7778 28.2975L23.2642 24.4781C21.7509 25.629 19.9017 26.2515 18.0004 26.25C14.2073 26.25 10.9865 23.8314 9.7732 20.4561L5.01758 24.1201C7.43112 28.8429 12.3326 32.0833 18.0004 32.0833Z" fill="#4CAF50"/>
<path id="Vector_4" d="M32.2997 14.6438H31.125V14.5833H18V20.4166H26.2418C25.6666 22.0327 24.6306 23.4449 23.2617 24.4788L23.2639 24.4773L27.7774 28.2967C27.458 28.5869 32.5833 24.7916 32.5833 17.4999C32.5833 16.5221 32.4827 15.5676 32.2997 14.6438Z" fill="#1976D2"/>
</g>
</svg>
