<svg width="29" height="29" viewBox="0 0 29 29" fill="none" xmlns="http://www.w3.org/2000/svg">
<g id="iconamoon:star-fill">
<path id="Vector" fill-rule="evenodd" clip-rule="evenodd" d="M15.5972 1.91039C15.5004 1.70079 15.3457 1.52328 15.1513 1.39886C14.9568 1.27444 14.7308 1.20831 14.5 1.20831C14.2692 1.20831 14.0431 1.27444 13.8487 1.39886C13.6543 1.52328 13.4995 1.70079 13.4028 1.91039L9.93491 9.42622L1.71704 10.4013C1.48776 10.4284 1.27103 10.5206 1.09251 10.667C0.913986 10.8134 0.781143 11.0079 0.7097 11.2274C0.638256 11.447 0.631204 11.6824 0.689378 11.9058C0.747551 12.1292 0.868515 12.3313 1.03795 12.4881L7.11587 18.1069L5.50274 26.2269C5.45794 26.4532 5.47888 26.6877 5.5631 26.9025C5.64731 27.1173 5.79127 27.3036 5.97797 27.4392C6.16466 27.5748 6.38628 27.6541 6.61662 27.6677C6.84696 27.6814 7.07639 27.6288 7.27779 27.5162L14.5 23.4731L21.7222 27.5162C21.9237 27.6293 22.1535 27.6822 22.3841 27.6687C22.6148 27.6552 22.8368 27.5758 23.0238 27.44C23.2107 27.3042 23.3548 27.1176 23.4389 26.9024C23.5231 26.6871 23.5437 26.4523 23.4985 26.2257L21.8853 18.1081L27.962 12.4881C28.1315 12.3313 28.2524 12.1292 28.3106 11.9058C28.3688 11.6824 28.3617 11.447 28.2903 11.2274C28.2188 11.0079 28.086 10.8134 27.9075 10.667C27.729 10.5206 27.5122 10.4284 27.283 10.4013L19.0639 9.42502L15.5972 1.91039Z" fill="#FFC700"/>
</g>
</svg>
