<svg width="39" height="39" viewBox="0 0 39 39" fill="none" xmlns="http://www.w3.org/2000/svg">
<g id="mage:instagram-circle">
<path id="Vector" d="M22.0486 19.8848C22.0391 20.3864 21.8808 20.8739 21.5939 21.2854C21.307 21.6969 20.9044 22.014 20.437 22.1964C19.9697 22.3789 19.4588 22.4185 18.9689 22.3102C18.4791 22.2019 18.0324 21.9506 17.6856 21.5882C17.3387 21.2257 17.1072 20.7685 17.0205 20.2744C16.9338 19.7802 16.9958 19.2715 17.1986 18.8126C17.4013 18.3538 17.7358 17.9654 18.1595 17.6969C18.5832 17.4283 19.0771 17.2916 19.5786 17.304C20.2451 17.3287 20.8757 17.612 21.3368 18.0937C21.7979 18.5755 22.0532 19.218 22.0486 19.8848Z" fill="#F8F8F8"/>
<path id="Vector_2" d="M23.8743 11.9521H15.2847C14.4348 11.9521 13.6197 12.2898 13.0187 12.8908C12.4177 13.4918 12.0801 14.3069 12.0801 15.1568V23.9396C12.0801 24.3604 12.163 24.7771 12.324 25.1659C12.4851 25.5547 12.7211 25.908 13.0187 26.2056C13.3163 26.5032 13.6696 26.7392 14.0584 26.9003C14.4472 27.0613 14.8639 27.1442 15.2847 27.1442H23.8743C24.2952 27.1442 24.7119 27.0613 25.1007 26.9003C25.4895 26.7392 25.8428 26.5032 26.1404 26.2056C26.4379 25.908 26.674 25.5547 26.8351 25.1659C26.9961 24.7771 27.079 24.3604 27.079 23.9396V15.1726C27.0807 14.7506 26.999 14.3324 26.8388 13.9419C26.6785 13.5515 26.4428 13.1965 26.145 12.8973C25.8473 12.5981 25.4935 12.3606 25.1039 12.1984C24.7142 12.0363 24.2964 11.9526 23.8743 11.9521ZM19.5787 24.1802C18.7284 24.1994 17.8917 23.9648 17.1753 23.5064C16.4589 23.0479 15.8954 22.3864 15.5566 21.6063C15.2178 20.8262 15.1191 19.9628 15.2732 19.1263C15.4273 18.2899 15.8271 17.5183 16.4216 16.9101C17.0161 16.3018 17.7783 15.8845 18.6111 15.7114C19.4438 15.5383 20.3092 15.6172 21.0969 15.9381C21.8845 16.259 22.5587 16.8073 23.0334 17.513C23.5081 18.2188 23.7617 19.05 23.7619 19.9005C23.7684 20.4562 23.6653 21.0078 23.4586 21.5236C23.2518 22.0395 22.9455 22.5096 22.557 22.907C22.1685 23.3045 21.7056 23.6215 21.1945 23.8399C20.6835 24.0584 20.1345 24.174 19.5787 24.1802ZM24.2274 15.6223C24.1229 15.6223 24.0195 15.6015 23.9232 15.5611C23.8268 15.5206 23.7396 15.4613 23.6664 15.3867C23.5933 15.3121 23.5358 15.2237 23.4973 15.1265C23.4587 15.0294 23.44 14.9256 23.4421 14.8211C23.4421 14.6087 23.5265 14.4049 23.6767 14.2546C23.827 14.1044 24.0308 14.02 24.2432 14.02C24.4557 14.02 24.6595 14.1044 24.8098 14.2546C24.96 14.4049 25.0444 14.6087 25.0444 14.8211C25.0476 14.9343 25.0262 15.0467 24.9819 15.1508C24.9375 15.2549 24.8712 15.3482 24.7874 15.4243C24.7037 15.5004 24.6045 15.5574 24.4966 15.5916C24.3888 15.6258 24.2748 15.6363 24.1625 15.6223H24.2274Z" fill="white"/>
<path id="Vector_3" d="M19.5787 3.6667C15.3795 3.64571 11.3438 5.29372 8.35967 8.2482C5.3755 11.2027 3.68721 15.2216 3.66621 19.4209C3.64522 23.6201 5.29323 27.6557 8.24771 30.6399C11.2022 33.6241 15.2211 35.3124 19.4204 35.3334C21.4996 35.3438 23.5606 34.9445 25.4856 34.1584C27.4105 33.3723 29.1618 32.2148 30.6394 30.7519C32.117 29.289 33.292 27.5493 34.0973 25.6323C34.9027 23.7153 35.3225 21.6585 35.3329 19.5792C35.3433 17.4999 34.944 15.439 34.1579 13.514C33.3718 11.5891 32.2143 9.83777 30.7514 8.36016C29.2885 6.88255 27.5489 5.70754 25.6318 4.90224C23.7148 4.09693 21.658 3.6771 19.5787 3.6667ZM29.1943 23.7782C29.1987 24.4885 29.0621 25.1927 28.7923 25.8498C28.5226 26.507 28.1251 27.104 27.6229 27.6064C27.1206 28.1088 26.5237 28.5064 25.8666 28.7764C25.2096 29.0463 24.5055 29.1832 23.7951 29.179H15.3655C14.6552 29.1829 13.9513 29.046 13.2943 28.7761C12.6374 28.5062 12.0405 28.1087 11.5382 27.6066C11.0359 27.1044 10.6382 26.5077 10.3682 25.8508C10.0981 25.1939 9.96093 24.49 9.96471 23.7798V15.3485C9.9603 14.6382 10.0969 13.9341 10.3667 13.2769C10.6364 12.6198 11.0339 12.0227 11.5362 11.5204C12.0384 11.018 12.6353 10.6203 13.2924 10.3504C13.9494 10.0804 14.6535 9.94358 15.3639 9.94779H23.7951C24.5053 9.94358 25.2093 10.0804 25.8663 10.3502C26.5232 10.6201 27.1201 11.0176 27.6223 11.5198C28.1245 12.022 28.522 12.6189 28.7919 13.2758C29.0617 13.9328 29.1985 14.6367 29.1943 15.347V23.7782Z" fill="white"/>
</g>
</svg>
