<svg width="38" height="38" viewBox="0 0 38 38" fill="none" xmlns="http://www.w3.org/2000/svg">
<g id="mage:instagram-circle">
<path id="Vector" d="M21.5486 19.3848C21.5391 19.8864 21.3808 20.3739 21.0939 20.7854C20.807 21.1969 20.4044 21.514 19.937 21.6964C19.4697 21.8789 18.9588 21.9185 18.4689 21.8102C17.9791 21.7019 17.5324 21.4506 17.1856 21.0882C16.8387 20.7257 16.6072 20.2685 16.5205 19.7744C16.4338 19.2802 16.4958 18.7715 16.6986 18.3126C16.9013 17.8538 17.2358 17.4654 17.6595 17.1969C18.0832 16.9283 18.5771 16.7916 19.0786 16.804C19.7451 16.8287 20.3757 17.112 20.8368 17.5937C21.2979 18.0755 21.5532 18.718 21.5486 19.3848Z" fill="#F8F8F8"/>
<path id="Vector_2" d="M23.3743 11.4521H14.7847C13.9348 11.4521 13.1197 11.7898 12.5187 12.3908C11.9177 12.9918 11.5801 13.8069 11.5801 14.6568V23.4396C11.5801 23.8604 11.663 24.2771 11.824 24.6659C11.9851 25.0547 12.2211 25.408 12.5187 25.7056C12.8163 26.0032 13.1696 26.2392 13.5584 26.4003C13.9472 26.5613 14.3639 26.6442 14.7847 26.6442H23.3743C23.7952 26.6442 24.2119 26.5613 24.6007 26.4003C24.9895 26.2392 25.3428 26.0032 25.6404 25.7056C25.9379 25.408 26.174 25.0547 26.3351 24.6659C26.4961 24.2771 26.579 23.8604 26.579 23.4396V14.6726C26.5807 14.2506 26.499 13.8324 26.3388 13.4419C26.1785 13.0515 25.9428 12.6965 25.645 12.3973C25.3473 12.0981 24.9935 11.8606 24.6039 11.6984C24.2142 11.5363 23.7964 11.4526 23.3743 11.4521ZM19.0787 23.6802C18.2284 23.6994 17.3917 23.4648 16.6753 23.0064C15.9589 22.5479 15.3954 21.8864 15.0566 21.1063C14.7178 20.3262 14.6191 19.4628 14.7732 18.6263C14.9273 17.7899 15.3271 17.0183 15.9216 16.4101C16.5161 15.8018 17.2783 15.3845 18.1111 15.2114C18.9438 15.0383 19.8092 15.1172 20.5969 15.4381C21.3845 15.759 22.0587 16.3073 22.5334 17.013C23.0081 17.7188 23.2617 18.55 23.2619 19.4005C23.2684 19.9562 23.1653 20.5078 22.9586 21.0236C22.7518 21.5395 22.4455 22.0096 22.057 22.407C21.6685 22.8045 21.2056 23.1215 20.6945 23.3399C20.1835 23.5584 19.6345 23.674 19.0787 23.6802ZM23.7274 15.1223C23.6229 15.1223 23.5195 15.1015 23.4232 15.0611C23.3268 15.0206 23.2396 14.9613 23.1664 14.8867C23.0933 14.8121 23.0358 14.7237 22.9973 14.6265C22.9587 14.5294 22.94 14.4256 22.9421 14.3211C22.9421 14.1087 23.0265 13.9049 23.1767 13.7546C23.327 13.6044 23.5308 13.52 23.7432 13.52C23.9557 13.52 24.1595 13.6044 24.3098 13.7546C24.46 13.9049 24.5444 14.1087 24.5444 14.3211C24.5476 14.4343 24.5262 14.5467 24.4819 14.6508C24.4375 14.7549 24.3712 14.8482 24.2874 14.9243C24.2037 15.0004 24.1045 15.0574 23.9966 15.0916C23.8888 15.1258 23.7748 15.1363 23.6625 15.1223H23.7274Z" fill="white"/>
<path id="Vector_3" d="M19.0787 3.1667C14.8795 3.14571 10.8438 4.79372 7.85967 7.7482C4.8755 10.7027 3.18721 14.7216 3.16621 18.9209C3.14522 23.1201 4.79323 27.1557 7.74771 30.1399C10.7022 33.1241 14.7211 34.8124 18.9204 34.8334C20.9996 34.8438 23.0606 34.4445 24.9856 33.6584C26.9105 32.8723 28.6618 31.7148 30.1394 30.2519C31.617 28.789 32.792 27.0493 33.5973 25.1323C34.4027 23.2153 34.8225 21.1585 34.8329 19.0792C34.8433 16.9999 34.444 14.939 33.6579 13.014C32.8718 11.0891 31.7143 9.33777 30.2514 7.86016C28.7885 6.38255 27.0489 5.20754 25.1318 4.40224C23.2148 3.59693 21.158 3.1771 19.0787 3.1667ZM28.6943 23.2782C28.6987 23.9885 28.5621 24.6927 28.2923 25.3498C28.0226 26.007 27.6251 26.604 27.1229 27.1064C26.6206 27.6088 26.0237 28.0064 25.3666 28.2764C24.7096 28.5463 24.0055 28.6832 23.2951 28.679H14.8655C14.1552 28.6829 13.4513 28.546 12.7943 28.2761C12.1374 28.0062 11.5405 27.6087 11.0382 27.1066C10.5359 26.6044 10.1382 26.0077 9.86815 25.3508C9.59806 24.6939 9.46093 23.99 9.46471 23.2798V14.8485C9.4603 14.1382 9.59693 13.4341 9.86668 12.7769C10.1364 12.1198 10.5339 11.5227 11.0362 11.0204C11.5384 10.518 12.1353 10.1203 12.7924 9.85036C13.4494 9.58042 14.1535 9.44358 14.8639 9.44779H23.2951C24.0053 9.44358 24.7093 9.58037 25.3663 9.85021C26.0232 10.1201 26.6201 10.5176 27.1223 11.0198C27.6245 11.522 28.022 12.1189 28.2919 12.7758C28.5617 13.4328 28.6985 14.1367 28.6943 14.847V23.2782Z" fill="white"/>
</g>
</svg>
