<svg width="29" height="29" viewBox="0 0 29 29" fill="none" xmlns="http://www.w3.org/2000/svg">
<g id="tabler:lock-filled">
<path id="Vector" d="M14.4993 2.83325C16.0464 2.83325 17.5302 3.44783 18.6241 4.5418C19.7181 5.63576 20.3327 7.11949 20.3327 8.66658V12.1666C21.2609 12.1666 22.1512 12.5353 22.8076 13.1917C23.4639 13.8481 23.8327 14.7383 23.8327 15.6666V22.6666C23.8327 23.5948 23.4639 24.4851 22.8076 25.1415C22.1512 25.7978 21.2609 26.1666 20.3327 26.1666H8.66602C7.73776 26.1666 6.84752 25.7978 6.19114 25.1415C5.53476 24.4851 5.16602 23.5948 5.16602 22.6666V15.6666C5.16602 14.7383 5.53476 13.8481 6.19114 13.1917C6.84752 12.5353 7.73776 12.1666 8.66602 12.1666V8.66658C8.66602 7.11949 9.2806 5.63576 10.3746 4.5418C11.4685 3.44783 12.9523 2.83325 14.4993 2.83325ZM14.4993 16.8333C13.9107 16.8331 13.3437 17.0554 12.912 17.4557C12.4804 17.8559 12.216 18.4046 12.1718 18.9916L12.166 19.1666C12.166 19.6281 12.3029 20.0792 12.5593 20.4629C12.8156 20.8466 13.1801 21.1457 13.6064 21.3223C14.0328 21.4989 14.5019 21.5451 14.9546 21.4551C15.4072 21.3651 15.8229 21.1428 16.1493 20.8165C16.4756 20.4902 16.6978 20.0744 16.7878 19.6218C16.8779 19.1692 16.8317 18.7 16.6551 18.2737C16.4785 17.8473 16.1794 17.4829 15.7957 17.2265C15.412 16.9701 14.9608 16.8333 14.4993 16.8333ZM14.4993 5.16659C13.5711 5.16659 12.6809 5.53533 12.0245 6.19171C11.3681 6.84809 10.9993 7.73833 10.9993 8.66658V12.1666H17.9993V8.66658C17.9993 7.73833 17.6306 6.84809 16.9742 6.19171C16.3178 5.53533 15.4276 5.16659 14.4993 5.16659Z" fill="white"/>
</g>
</svg>
