<svg width="39" height="39" viewBox="0 0 39 39" fill="none" xmlns="http://www.w3.org/2000/svg">
<g id="ant-design:twitter-circle-filled">
<path id="Vector" d="M19.5 2.875C10.3191 2.875 2.875 10.3191 2.875 19.5C2.875 28.6809 10.3191 36.125 19.5 36.125C28.6809 36.125 36.125 28.6809 36.125 19.5C36.125 10.3191 28.6809 2.875 19.5 2.875ZM27.4896 15.4068C27.5008 15.5813 27.5008 15.7631 27.5008 15.9412C27.5008 21.3889 23.352 27.6641 15.7705 27.6641C13.4326 27.6641 11.2654 26.985 9.43965 25.816C9.77363 25.8531 10.0928 25.868 10.4342 25.868C12.3639 25.868 14.1377 25.2148 15.5516 24.109C13.7406 24.0719 12.2191 22.8844 11.6996 21.2516C12.3342 21.3443 12.9057 21.3443 13.5588 21.1773C12.6263 20.9879 11.7882 20.4815 11.1868 19.7441C10.5854 19.0068 10.2579 18.0839 10.2598 17.1324V17.0805C10.8053 17.3885 11.4473 17.5777 12.1189 17.6037C11.5543 17.2274 11.0912 16.7176 10.7708 16.1194C10.4504 15.5213 10.2825 14.8534 10.282 14.1748C10.282 13.4066 10.4824 12.7053 10.8424 12.0967C11.8774 13.3708 13.1689 14.4128 14.633 15.1551C16.0971 15.8974 17.701 16.3233 19.3404 16.4051C18.7578 13.6033 20.8508 11.3359 23.3668 11.3359C24.5543 11.3359 25.623 11.8332 26.3764 12.6348C27.3078 12.4604 28.1984 12.1115 28.9926 11.6439C28.6846 12.5977 28.0389 13.4029 27.1816 13.9113C28.0129 13.8223 28.8145 13.5922 29.5566 13.2693C28.9963 14.0932 28.2949 14.8242 27.4896 15.4068Z" fill="white"/>
</g>
</svg>
